<?xml version="1.0" encoding="UTF-8"?>
<svg width="441.53247" height="259.59439" xmlns="http://www.w3.org/2000/svg" xmlns:xlink="http://www.w3.org/1999/xlink">
 <title>white cloud</title>
 <defs>
  <linearGradient id="linearGradient9263">
   <stop offset="0" id="stop9265" stop-color="#5a5a5a"/>
   <stop offset="1" id="stop9267" stop-opacity="0" stop-color="#5a5a5a"/>
  </linearGradient>
  <linearGradient id="linearGradient3134">
   <stop offset="0" id="stop3136" stop-color="#5a5a5a"/>
   <stop offset="1" id="stop3138" stop-opacity="0" stop-color="#5a5a5a"/>
  </linearGradient>
  <linearGradient xlink:href="#linearGradient3134" id="linearGradient5311" x1="0.310142" y1="3.374516" x2="0.171552" y2="3.52044"/>
  <linearGradient xlink:href="#linearGradient9263" id="linearGradient10246" x1="-1.600889" y1="2.895614" x2="0.944884" y2="0.262136"/>
 </defs>
 <metadata id="metadata7">image/svg+xml</metadata>
 <g>
  <title>Layer 1</title>
  <g externalResourcesRequired="false" id="layer1">
   <path d="m209.126007,0c-12.466003,0 -23.464005,6.49483 -30.032013,16.4375c-1.345993,-0.1653 -2.705994,-0.273001 -4.092987,-0.2813l-0.219009,0c-12.128998,0 -22.878998,6.1639 -29.5,15.6563c-2.481995,0.4697 -4.938004,0.9524 -7.375,1.4687c-5.621002,-3.7663 -12.322998,-5.9883 -19.5,-6.0312l-0.187996,0c-7.247002,0 -14.011002,2.2334 -19.687103,6.0312c-3.587502,-1.256699 -7.4468,-1.944901 -11.4375,-1.9687l-0.1875,0c-16.266296,0 -30.078499,11.080101 -34.75,26.4063c-15.7519,1.5303 -28.594198,13.515301 -32.062498,29.2187c-10.769051,6.529099 -18.01701,18.640503 -18.09379,32.531502c-0.04483,8.111 2.35446,15.652992 6.5,21.842995c-0.94159,3.32901 -1.44861,6.827011 -1.46875,10.469009c-0.10458,18.927994 13.19274,34.745987 30.625039,37.656998c-0.198997,1.567001 -0.3036,3.158997 -0.3125,4.780991c-0.115597,20.910004 16.113102,37.973007 36.218704,38.093002c9.5951,0.057999 18.332298,-3.755997 24.875,-10.030991c2.601898,0.929993 5.2519,1.849991 7.937897,2.718994c6.528999,9.854004 17.441002,16.332001 29.812004,16.406006c6.613998,0.039993 12.821991,-1.76001 18.188004,-4.937012c0.702988,0.113998 1.417999,0.202011 2.125,0.312012c6.507996,6.562988 15.350998,10.628998 25.125,10.687988c7.529999,0.045013 14.542999,-2.301987 20.375,-6.343994c1.970993,0.072998 3.949997,0.143005 5.936996,0.186996c6.632004,8.621002 16.815994,14.182007 28.25,14.25c12.858002,0.077011 24.179001,-6.815994 30.719009,-17.25c4.699982,-0.593002 9.334991,-1.244995 13.905975,-2c4.749023,3.557007 10.356018,5.945999 16.438019,6.781998c6.52298,9.901001 17.436981,16.425995 29.842987,16.5c16.434998,0.097992 30.416016,-11.153992 35.032013,-26.687988c1.755981,0.281998 3.544006,0.426987 5.375,0.437988c0.627991,0.004013 1.253998,-0.033997 1.875,-0.062988c0.619995,-0.029007 1.230988,-0.064011 1.842987,-0.125c12.365021,-1.23201 22.964996,-8.916 28.593994,-19.781006c2.291016,0.485001 4.667999,0.735992 7.094025,0.75c20.10498,0.119995 36.508972,-16.746002 36.625,-37.656006c0.064972,-11.867996 -5.128998,-22.503998 -13.313019,-29.5c3.911011,-5.996994 6.207001,-13.214996 6.25,-20.999992c0.063995,-11.560005 -4.867981,-21.941002 -12.686981,-28.937805c0.35498,-2.0858 0.549988,-4.216896 0.561981,-6.406197c0.115997,-20.909798 -16.113007,-38.004799 -36.217987,-38.125l-0.218994,0c-7.272003,0 -14.031006,2.240898 -19.719025,6.0625c-0.871979,-0.4706 -1.735992,-0.943802 -2.625,-1.4063c-5.085999,-14.419899 -18.369995,-24.750301 -34,-24.8437l-0.218994,0c-6.501007,0 -12.588989,1.768101 -17.875,4.875c-3.428986,-17.1063 -17.960999,-30.02055 -35.436981,-30.125l-0.219025,0c-11.267975,0 -21.347992,5.3202 -28.030991,13.6875c-3.186996,-1.809601 -6.668991,-3.121099 -10.343994,-3.875c-6.492004,-10.11583 -17.528,-16.79989 -30.094009,-16.875l-0.217987,0z" id="path2162" stroke-dashoffset="0" stroke-dasharray="72, 72" stroke-miterlimit="0" stroke-width="3" fill="url(#linearGradient5311)"/>
   <path id="path6344" d="m210.744003,10.8876c-11.899002,0 -22.399002,5.950001 -28.669006,15.058701c-1.285004,-0.151501 -2.584,-0.250101 -3.90799,-0.2577l-0.209015,0c-11.577988,0 -21.839996,5.646799 -28.160995,14.343c-2.369995,0.430298 -4.714996,0.872498 -7.041,1.3456c-5.365997,-3.450401 -11.763,-5.486099 -18.614998,-5.525402l-0.179001,0c-6.918999,0 -13.375999,2.046101 -18.794998,5.525402c-3.425003,-1.151402 -7.108803,-1.781799 -10.918602,-1.8036l-0.178894,0c-15.528503,0 -28.714203,10.1506 -33.173805,24.1912c-15.037399,1.402 -27.2971,12.381699 -30.608099,26.767799c-10.2806,5.981499 -17.1998,17.076401 -17.2731,29.802399c-0.0428,7.431 2.247701,14.340996 6.2052,20.012001c-0.898899,3.048996 -1.3829,6.253998 -1.4021,9.589996c-0.099899,17.339996 12.594299,31.831009 29.235798,34.498001c-0.189899,1.434998 -0.2897,2.893997 -0.298298,4.380005c-0.110302,19.155991 15.382301,34.787994 34.575901,34.897995c9.159897,0.053009 17.500801,-3.440994 23.747002,-9.188995c2.483994,0.850998 5.013,1.694 7.576996,2.490005c6.234001,9.028 16.649994,14.962997 28.460007,15.029999c6.313995,0.036987 12.23999,-1.612 17.362991,-4.52301c0.671005,0.105011 1.354004,0.184998 2.028,0.286011c6.212997,6.011993 14.654999,9.737991 23.986008,9.791c7.187988,0.041992 13.882996,-2.109009 19.450989,-5.811005c1.882004,0.067001 3.771011,0.130005 5.667999,0.17099c6.331009,7.89801 16.052002,12.993011 26.968002,13.055008c12.275009,0.069992 23.082016,-6.244003 29.326004,-15.802994c4.487,-0.542999 8.911987,-1.141006 13.274994,-1.832001c4.533997,3.257996 9.886017,5.445999 15.692017,6.21199c6.22699,9.070999 16.645996,15.048004 28.48999,15.115997c15.688995,0.090012 29.036011,-10.217987 33.441986,-24.44899c1.677002,0.259003 3.384003,0.390991 5.131012,0.401001c0.600006,0.003998 1.197998,-0.031006 1.790009,-0.057007c0.592987,-0.026993 1.175995,-0.05899 1.760986,-0.115005c11.803009,-1.128998 21.921997,-8.167999 27.296021,-18.121994c2.186981,0.445007 4.457001,0.673996 6.771973,0.686996c19.194,0.111008 34.854004,-15.340988 34.96402,-34.496994c0.062988,-10.871994 -4.895996,-20.615997 -12.709015,-27.026001c3.733002,-5.494003 5.925995,-12.106003 5.96701,-19.237999c0.061005,-10.591003 -4.64801,-20.099998 -12.112,-26.5103c0.338989,-1.910904 0.524994,-3.863205 0.536987,-5.868904c0.110016,-19.1558 -15.382996,-34.816898 -34.575989,-34.926998l-0.209015,0c-6.941986,0 -13.393982,2.052902 -18.823975,5.554005c-0.833008,-0.431206 -1.65802,-0.864704 -2.506012,-1.288303c-4.855011,-13.2104 -17.536987,-22.674202 -32.458008,-22.7598l-0.208984,0c-6.205994,0 -12.018005,1.619701 -17.063995,4.466c-3.274017,-15.671299 -17.147003,-27.5023 -33.830017,-27.598l-0.208984,0c-10.757019,0 -20.379013,4.873899 -26.76001,12.5394c-3.041992,-1.657801 -6.365997,-2.859301 -9.873993,-3.550001c-6.198013,-9.2673 -16.733002,-15.390699 -28.729004,-15.459499l-0.209,0z" stroke-dashoffset="0" stroke-dasharray="72, 72" stroke-miterlimit="0" stroke-width="3" fill="#ffffff"/>
   <path transform="translate(-6 3)" id="path8292" stroke-dashoffset="0" stroke-dasharray="72, 72" stroke-miterlimit="0" stroke-width="3" fill="url(#linearGradient10246)"/>
  </g>
 </g>
</svg>